<?xml version="1.0" standalone="no"?>
<!DOCTYPE svg PUBLIC "-//W3C//DTD SVG 20010904//EN"
 "http://www.w3.org/TR/2001/REC-SVG-20010904/DTD/svg10.dtd">
<svg version="1.0" xmlns="http://www.w3.org/2000/svg"
 width="808.000000pt" height="90.000000pt" viewBox="0 0 808.000000 90.000000"
 preserveAspectRatio="xMidYMid meet">

<g transform="translate(0.000000,90.000000) scale(0.100000,-0.100000)"
fill="#000000" stroke="none">
<path d="M0 450 l0 -440 230 0 c204 0 236 2 281 20 49 18 53 18 83 2 26 -14
68 -17 274 -20 l242 -3 0 440 0 441 -225 0 c-196 0 -231 -2 -274 -19 -48 -18
-51 -18 -103 0 -45 16 -86 18 -280 19 l-228 0 0 -440z m428 296 c9 -6 0 -21
-32 -56 -49 -52 -60 -81 -54 -135 l4 -35 -103 0 -103 0 0 121 0 122 138 -5
c76 -2 143 -8 150 -12z m552 -106 l0 -120 -105 0 -106 0 6 33 c9 44 -16 101
-62 149 -48 49 -34 55 150 57 l117 1 0 -120z m-377 -18 c49 -52 25 -102 -49
-102 -45 0 -64 17 -64 56 0 23 49 74 70 74 9 0 28 -13 43 -28z m-261 -286 c-4
-49 12 -87 60 -141 17 -20 28 -39 24 -43 -4 -3 -70 -8 -147 -10 l-139 -4 0
121 0 121 103 0 102 0 -3 -44z m270 27 c25 -22 23 -46 -8 -82 -32 -38 -53 -39
-87 -3 -29 30 -33 52 -17 83 14 25 85 26 112 2z m368 -104 l0 -121 -137 4
c-76 2 -144 7 -151 12 -11 6 -6 17 22 45 46 47 70 104 61 148 l-6 33 106 0
105 0 0 -121z"/>
<path d="M1640 450 l0 -300 207 0 207 0 63 64 63 65 0 235 0 236 -270 0 -270
0 0 -300z m410 120 l0 -50 -140 0 -140 0 0 43 c0 24 3 47 7 50 3 4 66 7 140 7
l133 0 0 -50z m0 -240 l0 -51 -137 3 -138 3 -3 48 -3 47 140 0 141 0 0 -50z"/>
<path d="M2315 737 c-3 -7 -4 -140 -3 -297 l3 -285 233 -3 232 -2 0 65 0 65
-167 2 -168 3 -3 233 -2 232 -60 0 c-40 0 -62 -4 -65 -13z"/>
<path d="M2870 450 l0 -300 265 0 265 0 0 300 0 300 -65 0 -65 0 -2 -232 -3
-233 -130 0 -130 0 -3 233 -2 232 -65 0 -65 0 0 -300z"/>
<path d="M3560 450 l0 -300 208 0 208 0 67 68 67 68 -2 229 -3 230 -272 3
-273 2 0 -300z m410 115 l0 -45 -140 0 -140 0 0 45 0 45 140 0 140 0 0 -45z
m0 -235 l0 -51 -137 3 -138 3 -3 48 -3 47 140 0 141 0 0 -50z"/>
<path d="M4225 738 c-3 -8 -4 -141 -3 -298 l3 -285 63 -3 62 -3 0 116 0 115
58 0 57 -1 69 -114 69 -115 78 0 c44 0 79 3 79 8 0 4 -29 55 -65 112 l-65 105
67 5 68 5 0 180 0 180 -268 3 c-210 2 -269 0 -272 -10z m405 -168 l0 -50 -140
0 -140 0 0 43 c0 24 3 47 7 50 3 4 66 7 140 7 l133 0 0 -50z"/>
<path d="M4942 460 c-62 -159 -112 -295 -112 -300 0 -6 30 -10 69 -10 l69 0
27 70 27 71 136 -3 136 -3 26 -65 26 -65 72 -3 c40 -2 72 1 72 5 -1 4 -51 139
-113 298 l-113 290 -105 3 -105 3 -112 -291z m262 67 c20 -53 36 -100 36 -102
0 -8 -160 -6 -160 3 -1 19 75 211 81 204 4 -4 23 -51 43 -105z"/>
<path d="M5610 450 l0 -300 260 0 260 0 0 65 0 65 -195 0 -195 0 0 170 0 170
195 0 196 0 -3 63 -3 62 -257 3 -258 2 0 -300z"/>
<path d="M6255 737 c-3 -7 -4 -140 -3 -297 l3 -285 63 -3 62 -3 0 88 0 89 60
59 c33 32 61 57 63 54 2 -2 41 -66 86 -142 46 -76 89 -141 95 -143 7 -3 45 -4
85 -2 l72 3 -112 180 c-61 99 -114 186 -117 193 -3 8 38 56 99 118 l104 104
-89 0 -88 0 -126 -121 -127 -120 -3 120 -3 121 -60 0 c-39 0 -61 -4 -64 -13z"/>
<path d="M6950 685 l0 -65 193 -2 192 -3 0 -165 0 -165 -198 -3 -198 -2 3 -63
3 -62 263 -3 262 -2 0 300 0 300 -260 0 -260 0 0 -65z"/>
<path d="M7550 686 l0 -65 98 -3 97 -3 3 -232 2 -233 65 0 65 0 0 235 0 235
100 0 101 0 -3 63 -3 62 -262 3 -263 2 0 -64z"/>
<path d="M6950 450 l0 -71 128 3 127 3 0 65 0 65 -127 3 -128 3 0 -71z"/>
</g>
</svg>
